/* XPM */
static char *da0139373ef2471893df2de2247f66d3dZ4h34dku3YdlKky[] = {
/* columns rows colors chars-per-pixel */
"100 100 7 1 ",
"  c None",
". c black",
"X c #22B04C",
"o c #22B14C",
"O c #22B34C",
"+ c #22B24D",
"@ c white",
/* pixels */
"                                                                                                    ",
"                                                                                                    ",
"                                                                                                    ",
"                                                                                                    ",
"                                                                                                    ",
"                                                                                                    ",
"                                                                                                    ",
"                                                                                                    ",
"                                                                                                    ",
"                                                                                                    ",
"                                                                                                    ",
"                                                                                                    ",
"                                                                                                    ",
"                                                                                                    ",
"                                                                                                    ",
"                                                                                                    ",
"                                             ooooo                                                  ",
"                                           ooooooooo                                                ",
"                                         ooooooooooooo                                              ",
"                                        ooooooooooooooo                                             ",
"                                        ooooo.ooooooooo                                             ",
"                                       ooooo...oooo.oooo                                            ",
"                                       ooooo...ooo...ooo                                            ",
"                                      oooooo...ooo...oooo                                           ",
"                                      ooooooo.oooo...oooo                                           ",
"                                      ooooooooooooo.ooooo                                           ",
"                                      ooooooooo..oooooooo                                           ",
"                                      ooooooooo..oooooooo                                           ",
"                                       ooooooooooooooooo                                            ",
"                                       ooo.oooooo..ooooo                                            ",
"                                        ooo.oo....ooooo                                             ",
"                                        oooo...o@oooooo                                             ",
"                                         ooo@o@ooooooo                                              ",
"                                         ooooooooooo                                                ",
"                                         ooooooooooo                                                ",
"                                       oooooooooooooooo.                                            ",
"                                      .oooooooooooooooooo.                                          ",
"                                    ..ooooooooooooooooooo...                                        ",
"                                  ...ooooooooooooooooooooo...                                       ",
"                                 ...oooooooooooooooooooooooo..                                      ",
"                               ...oooooooooooooooooooooo..ooo..                                     ",
"                              ..oooo..oooooooooooooooooooo......                                    ",
"                             ....o...oooooooooooooooooooooo.....                                    ",
"                            ........ ooooooooooooooooooooo  ....                                    ",
"                            ......   ooooooooooooooooooooo   ...                                    ",
"                                      oooooooooooooooooooo                                          ",
"                                      ooooooooooooooooooo                                           ",
"                                       oooooooooooooooooo                                           ",
"                                       ooooooooooooooooo                                            ",
"                                        oooooooooooooooo                                            ",
"                                        oooooooooooooooo                                            ",
"                                         oooooooooooooo                                             ",
"                                         oooooooooooooo                                             ",
"                                          ooooooooooooo                                             ",
"                                           ooooooooooo                                              ",
"                                            oooooooooo                                              ",
"                                            ooooooooo                                               ",
"                                            ooo   ooo                                               ",
"                                            ooo   ooo                                               ",
"                                            ooo   ooo                                               ",
"                                            ooo   ooo                                               ",
"                                            ooo   ooo                                               ",
"                                            ooo   ooo                                               ",
"                                            ooo   ooo                                               ",
"                                            ooo   ooo                                               ",
"                                            ooo   ooo                                               ",
"                                            ooo   ooo                                               ",
"                                            ooo   ooo                                               ",
"                                            ooo   ooo                                               ",
"                                            ooo   ooo                                               ",
"                                            ooo   ooo                                               ",
"                                            ooo   ooo                                               ",
"                                            ooo   ooo                                               ",
"                                            ...   ...                                               ",
"                                            ...   ...                                               ",
"                                                                                                    ",
"                                                                                                    ",
"                                                                                                    ",
"                                                                                                    ",
"                                                                                                    ",
"                                                                                                    ",
"                                                                                                    ",
"                                                                                                    ",
"                                                                                                    ",
"                                                                                                    ",
"                                                                                                    ",
"                                                                                                    ",
"                                                                                                    ",
"                                                                                                    ",
"                                                                                                    ",
"                                                                                                    ",
"                                                                                                    ",
"                                                                                                    ",
"                                                                                                    ",
"                                                                                                    ",
"                                                                                                    ",
"                                                                                                    ",
"                                                                                                    ",
"                                                                                                    ",
"                                                                                                    "
};
