/* XPM */
static char *_db64bcfdf494ac6db6478ad1f5eafcdbU8tSEiCAavJU5if[] = {
/* columns rows colors chars-per-pixel */
"100 100 6 1 ",
"  c None",
". c black",
"X c #22B04C",
"o c #22B14C",
"O c #22B24C",
"+ c #22B34C",
/* pixels */
"                                                                                                    ",
"                                                                                                    ",
"                                                                                                    ",
"                                                                                                    ",
"                                                                                                    ",
"                                                                                                    ",
"                                                                                                    ",
"                                                                                                    ",
"                                                                                                    ",
"                                                                                                    ",
"                                                                                                    ",
"                                               .                                                    ",
"                                          .    .                                                    ",
"                                      .    .    .    .                                              ",
"                                       .   ..   .   ..   .                                          ",
"                                        .   .    . ..  ..                                           ",
"                                        .    .ooo. .  .                                             ",
"                                         . ooooooooo ..                                             ",
"                                    .    .ooooooooooo.                                              ",
"                                     .. ooooooooooooooo                                             ",
"                                      ..ooooooooooooooo                                             ",
"                                       ooooooooooooooooo                                            ",
"                                       ooooooooooooooooo                                            ",
"                                      ooooooooooooooooooo                                           ",
"                                      ooooooooooooooooooo                                           ",
"                                      ooooooooooooooooooo                                           ",
"                                      ooooooooooooooooooo                                           ",
"                                      ooooooooooooooooooo                                           ",
"                                       ooooooooooooooooo                                            ",
"                                 ..    ooooooooooooooooo  ....                                      ",
"                                 ...    ooooooooooooooo  .....                                      ",
"                                 ....   ooooooooooooooo  .....                                      ",
"                                 .....   ooooooooooooo  .....                                       ",
"                                 ...o.   ooooooooooo    .o..                                        ",
"                                 ..oo..  ooooooooooo   .oo..                                        ",
"                                  ..ooooooooooooooooooooooo.                                        ",
"                                  ..ooooooooooooooooooooooo.                                        ",
"                                   ..ooooooooooooooooooooo.                                         ",
"                                    .oooooooooooooooooooo..                                         ",
"                                     .ooooooooooooooooooo.                                          ",
"                                     oooooooooooooooooooo                                           ",
"                                     ooooooooooooooooooooo                                          ",
"                                     ooooooooooooooooooooo                                          ",
"                                     ooooooooooooooooooooo                                          ",
"                                     ooooooooooooooooooooo                                          ",
"                                     ooooooooooooooooooooo                                          ",
"                                     oooooooooooooooooooo                                           ",
"                                       oooooooooooooooooo                                           ",
"                                       ooooooooooooooooo                                            ",
"                                        oooooooooooooooo                                            ",
"                                        oooooooooooooooo                                            ",
"                                         oooooooooooooo                                             ",
"                                         oooooooooooooo                                             ",
"                                          ooooooooooooo                                             ",
"                                           ooooooooooo                                              ",
"                                            oooooooooo                                              ",
"                                            ooooooooo                                               ",
"                                            ooo   ooo                                               ",
"                                            ooo   ooo                                               ",
"                                            ooo   ooo                                               ",
"                                            ooo   ooo                                               ",
"                                            ooo   ooo                                               ",
"                                            ooo   ooo                                               ",
"                                            ooo   ooo                                               ",
"                                            ooo   ooo                                               ",
"                                            ooo   ooo                                               ",
"                                            ooo   ooo                                               ",
"                                            ooo   ooo                                               ",
"                                            ooo   ooo                                               ",
"                                            ooo   ooo                                               ",
"                                            ooo   ooo                                               ",
"                                            ooo   ooo                                               ",
"                                            ooo   ooo                                               ",
"                                            ...   ...                                               ",
"                                            ...   ...                                               ",
"                                                                                                    ",
"                                                                                                    ",
"                                                                                                    ",
"                                                                                                    ",
"                                                                                                    ",
"                                                                                                    ",
"                                                                                                    ",
"                                                                                                    ",
"                                                                                                    ",
"                                                                                                    ",
"                                                                                                    ",
"                                                                                                    ",
"                                                                                                    ",
"                                                                                                    ",
"                                                                                                    ",
"                                                                                                    ",
"                                                                                                    ",
"                                                                                                    ",
"                                                                                                    ",
"                                                                                                    ",
"                                                                                                    ",
"                                                                                                    ",
"                                                                                                    ",
"                                                                                                    ",
"                                                                                                    "
};
