/* XPM */
static char *_8372490daf245178ff964c38346ba17hTfEpqLzgqLEA3qm[] = {
/* columns rows colors chars-per-pixel */
"100 100 4 1 ",
"  c None",
". c black",
"X c #22B14C",
"o c white",
/* pixels */
"                                                                                                    ",
"                                                                                                    ",
"                                                                                                    ",
"                                                                                                    ",
"                                                                                                    ",
"                                                                                                    ",
"                                                                                                    ",
"                                                                                                    ",
"                                                                                                    ",
"                                                                                                    ",
"                                                                                                    ",
"                                                                                                    ",
"                                                                                                    ",
"                                                                                                    ",
"                                                                                                    ",
"                                                                                                    ",
"                                           XXXXX                                                    ",
"                                         XXXXXXXXX                                                  ",
"                                       XXXXXXXXXXXXX                                                ",
"                                      XXXXXXXXXXXXXXX                                               ",
"                                      XXXXX.XXXXXXXXX                                               ",
"                                     XXXXX...XXXX.XXXX                                              ",
"                                     XXXXX...XXX...XXX                                              ",
"                                    XXXXXX...XXX...XXXX                                             ",
"                                    XXXXXXX.XXXX...XXXX                                             ",
"                                    XXXXXXXXXXXXX.XXXXX                                             ",
"                                    XXXXXXXXX..XXXXXXXX                                             ",
"                                    XXXXXXXXX..XXXXXXXX                                             ",
"                                     XXXXXXXXXXXXXXXXX                                              ",
"                                     XXX.XXXXXX..XXXXX                                              ",
"                                      XXX.XX....XXXXX                                               ",
"                                      XXXX...XoXXXXXX                                               ",
"                                       XXXoXoXXXXXXX                                                ",
"                                       XXXXXXXXXXX                                                  ",
"                                       XXXXXXXXXXX        XXX.                                      ",
"                                      XXXXXXXXXXXXXXXXXXXXXXXXX.                                    ",
"                                      XXXXXXXXXXXXXXXXXXXXXXXX.                                     ",
"                                     XXXXXXXXXXXXXXXXXXXXXXXX.                                      ",
"                                     XXXXXXXXXXXXXXXXXXX                                            ",
"                                     XXXXXXXXXXXXXXXXX                                              ",
"                                     XXXXXXXXXXXXXXXXXXXXXXXX.                                      ",
"                                     XXXXXXXXXXXXXXXXXXXXXXXXX.                                     ",
"                                     XXXXXXXXXXXXXXXXXXXXXXXXXX.                                    ",
"                                     XXXXXXXXXXXXXXXXXXXXXXXXX.                                     ",
"                                     XXXXXXXXXXXXXXXXXX                                             ",
"                                      XXXXXXXXXXXXXXXXX                                             ",
"                                      XXXXXXXXXXXXXXXXX                                             ",
"                                       XXXXXXXXXXXXXXXX                                             ",
"                                        XXXXXXXXXXXXXXX                                             ",
"                                        XXXXXXXXXXXXXX                                              ",
"                                        XXXXXXXXXXXXXX                                              ",
"                                         XXXXXXXXXXXXX                                              ",
"                                         XXXXXXXXXXXXX                                              ",
"                                          XXXXXXXXXXX                                               ",
"                                           XXXXXXXXXX                                               ",
"                                             XXXXXXX                                                ",
"                                             XXXXXXX                                                ",
"                                             XXX XXX                                                ",
"                                             XXX XXX                                                ",
"                                             XXX XXX                                                ",
"                                             XXX XXX                                                ",
"                                             XXX XXX                                                ",
"                                             XXX XXX                                                ",
"                                             XXX XXX                                                ",
"                                             XXX XXX                                                ",
"                                             XXX XXX                                                ",
"                                             XXX XXX                                                ",
"                                             XXX XXX                                                ",
"                                             XXX XXX                                                ",
"                                             XXX XXX                                                ",
"                                             XXX XXX                                                ",
"                                             XXX XXX                                                ",
"                                             XXX XXX                                                ",
"                                             ... ...                                                ",
"                                             ... ...                                                ",
"                                                                                                    ",
"                                                                                                    ",
"                                                                                                    ",
"                                                                                                    ",
"                                                                                                    ",
"                                                                                                    ",
"                                                                                                    ",
"                                                                                                    ",
"                                                                                                    ",
"                                                                                                    ",
"                                                                                                    ",
"                                                                                                    ",
"                                                                                                    ",
"                                                                                                    ",
"                                                                                                    ",
"                                                                                                    ",
"                                                                                                    ",
"                                                                                                    ",
"                                                                                                    ",
"                                                                                                    ",
"                                                                                                    ",
"                                                                                                    ",
"                                                                                                    ",
"                                                                                                    ",
"                                                                                                    "
};
