/* XPM */
static char *cca9a77dba904694b1fbe679e1be9b2086Nefo4znYDOiLBv[] = {
/* columns rows colors chars-per-pixel */
"100 100 3 1 ",
"  c None",
". c #990030",
"X c #FFA3B1",
/* pixels */
"                                                                                                    ",
"                                                                                                    ",
"                                                                                                    ",
"                                                                                                    ",
"                                                                                                    ",
"                                                                                                    ",
"                                                                                                    ",
"                                                                                                    ",
"                                                                                                    ",
"                                                                                                    ",
"                                                                                                    ",
"                                                                                                    ",
"                                                                                                    ",
"                                                                                                    ",
"                                                                                                    ",
"                                                                                                    ",
"                                                                                                    ",
"                                                                                                    ",
"                                                                                                    ",
"                                                                                                    ",
"                                                                                                    ",
"                                                                                                    ",
"                                                                                                    ",
"                                                                                                    ",
"                                                                                                    ",
"                                                                                                    ",
"                                                                                                    ",
"                                                  .......                                           ",
"                                              ....XXXXXXX....    ...                                ",
"                                         .....XXX......XXXXXX....XX..                               ",
"                                         .XXXXXXXXXXXXX.XXXXXXXXXXXX..                              ",
"                                        .XXXXXXX..XXXXXXXXXXXXXXXXXXX..                             ",
"                                       .XXXXXX...X......XXXX......XXXXX..                           ",
"                                      .XXXXXXX.XXXXX.XXXXX...XXXXX..XXXXX.                          ",
"                                     .XX..XXX..XXXXX.XXXX..XXX...XX.XXXXX..                         ",
"                                    .XXX.X.XX.XXXX..XXX..XXXX..X....XXXXX.                          ",
"                                    .XX.XXX.X..XXX...XX.XXXXX...XXXXXXXXX.                          ",
"                                   ..X..XXX.XX..XX.X.XX.XXX......XXXX..XX.                          ",
"                                   .XX.XXXXX.XX.XX.X.XX.....XXXX..XX..XXX.                          ",
"                                  .XXX.XXXXX.XX..XXX.XXXXXXXXXXXX..X..XX..                          ",
"                                 .XXX.XXX...X.XX.XXX.XXXXXX..XXXXX.XX.X.                            ",
"                                .XXX.XXX..X...XX.XXX.XXXXX...XXX..XXX...                            ",
"                                .XXX.XXX.XXX.X.XX.XX.XXXX..X.XX.XXXXXX.                             ",
"                                .XXX.XXX.XXX.X.XX.X.XXXXX.XX.XXXXXXXX.                              ",
"                                .XX.XXXX.XXX.X.XXX..XXXXX.XXXXXXXXX...                              ",
"                                .XX.XXXX.XXX.XX.XXXX....X..XXXXXX....                               ",
"                                .XX.XXXX..XX.XX.XXX..XX..X........X..                               ",
"                                .X.XXXXX..XX.XX.XXX.X.X..XXXXXXXXX...                               ",
"                                 ..XXXXXXXXX.XX..XX...X.XXXXXXXXX....                               ",
"                                 ..XXXXXXXXX.XXX.XX.XX.XXXXXXXX...                                  ",
"                                 ..XXXXXXXXX.XX.XXXXX..XXXXXXX...                                   ",
"                                 ...XXXXXXXX.XX.XXXX.XXXXXXX.....                                   ",
"                                 ..X...XXXXX.XX.XXX.XXXXXX...X..                                    ",
"                                  .XXX......XXX.XXX.XXXX..XXX..                                     ",
"                                  ..XXXXXXXXXX..X..XXXXX.XXX.X..                                    ",
"                                   .XXXXXXXXXX.X..XXXXX..XX.XX.                                     ",
"                                    .XXXXXXXXX...XXXXXX..X.XX..                                     ",
"                                     .XXXXXXXXXXXXXXXXXX..XX..                                      ",
"                                     ..XXXXXXXXXXXXX......X..                                       ",
"                                       ..XXXXXXXXX..    .XX..                                       ",
"                                         ..........    ..X..                                        ",
"                                                       ..X..                                        ",
"                                                       .XX.                                         ",
"                                                       .X..                                         ",
"                                                       ...                                          ",
"                                                       ...                                          ",
"                                                        ..                                          ",
"                                                                                                    ",
"                                                                                                    ",
"                                                                                                    ",
"                                                                                                    ",
"                                                                                                    ",
"                                                                                                    ",
"                                                                                                    ",
"                                                                                                    ",
"                                                                                                    ",
"                                                                                                    ",
"                                                                                                    ",
"                                                                                                    ",
"                                                                                                    ",
"                                                                                                    ",
"                                                                                                    ",
"                                                                                                    ",
"                                                                                                    ",
"                                                                                                    ",
"                                                                                                    ",
"                                                                                                    ",
"                                                                                                    ",
"                                                                                                    ",
"                                                                                                    ",
"                                                                                                    ",
"                                                                                                    ",
"                                                                                                    ",
"                                                                                                    ",
"                                                                                                    ",
"                                                                                                    ",
"                                                                                                    ",
"                                                                                                    ",
"                                                                                                    ",
"                                                                                                    "
};
