/* XPM */
static char *_a971e34aaea41928d21072b0e898a9f4PndyKnlDthKiE2d[] = {
/* columns rows colors chars-per-pixel */
"100 100 8 1 ",
"  c None",
". c black",
"X c #3B1505",
"o c #753419",
"O c #464646",
"+ c #990030",
"@ c #22B14C",
"# c #FFA3B1",
/* pixels */
"                                                                                                    ",
"                                                                                                    ",
"                                                                                                    ",
"                                                                                                    ",
"                                                                                                    ",
"                                                                                                    ",
"                                                                                                    ",
"                                                                                                    ",
"                                                                                                    ",
"                                                                                                    ",
"                                                                                                    ",
"                                                                                                    ",
"                                                                                                    ",
"                                                                                                    ",
"                                                                                                    ",
"                                                                                                    ",
"                                                                                                    ",
"                                                                                                    ",
"                                                                                                    ",
"                                                                                       OOO          ",
"                                                                                      OOOOO         ",
"                                                                                      OOOOO         ",
"                                                                                     OOOOOOO        ",
"                                                                                     OOOOOOO        ",
"                                                                                    OOOOOOOOO       ",
"                                                                                    OOOOOOOOO       ",
"                                                                                    OOOOOOOOO       ",
"                                                                                   OOOOOOOOOOO      ",
"                                                                                   OOOOOOOOOOO      ",
"                                       ++                                          OOOOOOOOOOO      ",
"                                      +++++                                        OOOOOOOOOOO      ",
"                                      ++++++                                       OOOO.OO.OOO      ",
"                                      ++++++   ###                                 OO..O....OO      ",
"                                      ++++++   ###                                OOOOOO.OO.OOO     ",
"                                      +++++   ####                                OOOOOOOOOOOOO     ",
"                                         +@   ####                 +++            OOOOOOOOOOOOO     ",
"                                         @    ###                 +++++           OOOOOOOOOOOOO     ",
"                             ##          @      @                ++++++           OOOOO.O..O.OO     ",
"                             ###         @      @                ++++++           OOO..O..O..OO     ",
"                            ####@@      @       @@               @+++             OOO..OOOO.OOO     ",
"                            ###  @      @        @              @@                OOOOOOOOOOOOO     ",
"                                  @    @@     XXX@XX XXXXX     @@                 OOOOOOOOOOOOO     ",
"                                  @   X@   XXXXXXX@XXXXXXXXXXX @                  OOO.OO.OOOOOO     ",
"                                  @ oXX@XXXXXXXXXX@XXXXXXXXXXX@XXXXXX             OOOOOOO..OOOO     ",
"                               ooo@@ooo@oXXXXXXXXXX@XXXXXXXXXX@XXXXXXooooX        OOOO......OOO     ",
"                            XXXXooo@oo@oooooooooooo@@ooXXXXXXX@XXXooooooXXooo     OOO....OO..OO     ",
"                         ooXXXXXXXX@Xo@ooooooooooooo@oooooooX@@XXXXXXXXXXXoooooo  OOOOOOOOOOOOO     ",
"                      ooXXXXXXXXXXX@X@XXoooooooooooX@XXXXXXXX@XXXXXoooXXooooooXXXoOOOOOOOOOOOOO     ",
"                    ooXXXXXXXXXXXXX@X@XXXXXXXXXXXXXXo@ooooooo@oooooooooooooXXXXoooOOOOOOOOOOOOO     ",
"                   XXXXXXXXXXXXXXXX@XXXXXXXXXXXXXXooo@@oooooo@ooooooooooXXXoooooooOOOOOOOOOOOOO     ",
"                 oXXXXXXXXXXXXXXXXX@XXXXXXXooooooooooo@ooooooooooooooooooXXXXXXoooOO.....OO..OO     ",
"               XXXXXXXoooXXoooXXXXXXXXXXXooooooooooooooooooooooooooooooooooooooXXoXOOOOOO...OOO     ",
"              XXXXXXXooooooXXooooooXXXXXXooooooooooooooooooooooooooooooooooXXXXXXXXOOOOOOOOOOO      ",
"              XXXXXooooooooooXXoooooooooooooooooooooooooooooooooooooooooXXXooooooooOOOOOOOOOOO      ",
"             XXXXoooooooooooooXXXXooooooXXXXXXXXXXXXXoooooooooooooooooooooXXXXXXXXXOOOOOOOOOOO      ",
"             XXooooooooooooooXXXXXXXXXXXXXXoooooooooXXXXXXooooooooooooooXXXXXXXooooOOOOOOOOOOO      ",
"            XXXoooooooooooXXXXXXXXXXXXXXXXXXXXXXXXXXXXXXXXXXXXXXXXXXXXXXXXoooooooooOOOOOOOOOOO      ",
"            XXoooooooooooooXXXXXXXXXXooooooXXXXXXXXXXXXXXXXXXXXXXoooooXXXXXXXXXooooOOOOOOOOOOO      ",
"           XXoooooooooXXXXXXXXXXXXXXXXXXXXXXooooooooooooXXXXXXXXXXXXXXXXXoooooooooooOOOOOOOOO       ",
"          XXXoXXXXXXXXXXXXXXXXXXXXXXXXXooooooooooooooooooooXXXXXXXXXXXXXXXooooooooooOOOOOOOOO       ",
"         XXXXXXXXXXXXXXXXXXXXXXXXooooooooooooooooooooooooooooooXXXXXXXXXXoooooooooooOOOOOOOOO       ",
"                                                                                                    ",
"                                                                                                    ",
"                                                                                                    ",
"                                                                                                    ",
"                                                                                                    ",
"                                                                                                    ",
"                                                                                                    ",
"                                                                                                    ",
"                                                                                                    ",
"                                                                                                    ",
"                                                                                                    ",
"                                                                                                    ",
"                                                                                                    ",
"                                                                                                    ",
"                                                                                                    ",
"                                                                                                    ",
"                                                                                                    ",
"                                                                                                    ",
"                                                                                                    ",
"                                                                                                    ",
"                                                                                                    ",
"                                                                                                    ",
"                                                                                                    ",
"                                                                                                    ",
"                                                                                                    ",
"                                                                                                    ",
"                                                                                                    ",
"                                                                                                    ",
"                                                                                                    ",
"                                                                                                    ",
"                                                                                                    ",
"                                                                                                    ",
"                                                                                                    ",
"                                                                                                    ",
"                                                                                                    ",
"                                                                                                    ",
"                                                                                                    ",
"                                                                                                    ",
"                                                                                                    "
};
